# xmcd
#
# Track frame offsets: 
#        150
#        29692
#        48250
#
# Disc length: 1013 seconds
#
# Revision: 1
# Processed by: cddbd v1.5.2PL0 Copyright (c) Steve Scherf et al.
# Submitted via: ExactAudioCopyFreeDBPlugin 1.0
#
DISCID=2003f303
DTITLE=Joyce "Fenderella" Irby - Mr.D.J. [CDS)
DYEAR=1989
DGENRE=Funk
TTITLE0=Mr.D.J.(Extended Version)
TTITLE1=Mr.D.J.(Radio Edit)
TTITLE2=Mr.D.J.(Intrumental)
EXTD=Special Guest:Doug E.Fresh
EXTT0=
EXTT1=
EXTT2=
PLAYORDER=
